<?xml version="1.0" ?><!DOCTYPE svg  PUBLIC '-//W3C//DTD SVG 1.1//EN'  'http://www.w3.org/Graphics/SVG/1.1/DTD/svg11.dtd'><svg enable-background="new 0 0 512 512" height="512px" id="Layer_1" version="1.1" viewBox="0 0 512 512" width="512px" xml:space="preserve" xmlns="http://www.w3.org/2000/svg" xmlns:xlink="http://www.w3.org/1999/xlink"><g><path d="M510.689,478.854c0,17.561-14.275,31.836-31.836,31.836H33.146c-17.56,0-31.836-14.275-31.836-31.836   V33.146c0-17.56,14.276-31.836,31.836-31.836h445.707c17.561,0,31.836,14.276,31.836,31.836V478.854z" fill="#487ABD"/></g><g><path d="M355.84,378.881H156.16c-46.588,0-84.48-37.895-84.48-84.482c0-37.969,25.574-71.208,61.624-81.314   c2.305-27.54,25.452-49.244,53.576-49.244c8.156,0,16.098,1.828,23.348,5.329c15.744-22.409,41.471-36.05,68.812-36.05   c44.1,0,80.426,33.961,84.16,77.123c43.16,3.732,77.121,40.06,77.121,84.156C440.32,340.986,402.428,378.881,355.84,378.881z    M186.88,179.199c-21.166,0-38.4,17.234-38.4,38.4c0.169,3.779-2.304,8.31-6.006,9.062c-32.117,6.451-55.434,34.945-55.434,67.737   c0,38.109,31.012,69.12,69.12,69.12h199.68c38.107,0,69.121-31.011,69.121-69.12c0-38.106-31.014-69.119-69.121-69.119   c-4.24,0-7.68-3.44-7.68-7.68c0-38.108-31.014-69.12-69.121-69.12c-24.406,0-47.261,13.348-59.642,34.821   c-1.06,1.858-2.842,3.18-4.931,3.655c-2.074,0.492-4.271,0.062-6.036-1.136C202.056,181.488,194.591,179.199,186.88,179.199z" fill="#FFFFFF"/></g></svg>