<?xml version="1.0" ?><!DOCTYPE svg  PUBLIC '-//W3C//DTD SVG 1.1//EN'  'http://www.w3.org/Graphics/SVG/1.1/DTD/svg11.dtd'><svg height="176.389mm" style="shape-rendering:geometricPrecision; text-rendering:geometricPrecision; image-rendering:optimizeQuality; fill-rule:evenodd; clip-rule:evenodd" version="1.1" viewBox="0 0 17639 17639" width="176.389mm" xml:space="preserve" xmlns="http://www.w3.org/2000/svg" xmlns:xlink="http://www.w3.org/1999/xlink"><defs><style type="text/css">
   <![CDATA[
    .fil0 {fill:#1E70B6}
   ]]>
  </style></defs><g id="Layer_x0020_1"><g id="_785613520"><path class="fil0" d="M3502 12735l0 -7937 6137 -1111 0 10160 -6137 -1112zm9657 -952l-3244 0 -2 -2867 597 409c162,129 368,105 501,10l2399 -1723 5 3859c-1,261 14,312 -256,312zm-2623 -3029l-623 -464 0 -1446 2787 0c106,-1 209,0 300,0 670,-3 357,222 52,444l-2020 1470c-178,130 -308,150 -496,-4zm-623 -2651l3812 0c421,0 421,141 421,456l0 3742c0,7 0,14 0,21 0,199 0,261 -211,261 -212,0 -212,-54 -211,-246 0,-12 -1,-27 -1,-36l0 -3739 -3810 0 0 -459zm-7832 9490l13493 0 1 -13476 -13494 1 0 13475z"/><path class="fil0" d="M5669 9243c-357,-1798 1435,-2332 1698,-831 331,1888 -1421,2227 -1698,831zm2230 -424c0,-965 -422,-1746 -1355,-1746 -1391,0 -1786,1874 -1097,2950 277,432 1032,762 1694,395 473,-262 758,-852 758,-1599z"/></g></g></svg>