<svg id="Mark_s_List" data-name="Mark&apos;s List" xmlns="http://www.w3.org/2000/svg" viewBox="0 0 100 100"><defs><style>.cls-1{fill:#7bc144;}.cls-2{fill:#5b5a5d;}</style></defs><title>SVG Icon</title><rect class="cls-1" width="100" height="100"/><path class="cls-2" d="M28.4,30.2h6.1a.6.6,0,0,0,.6-.6S35,24.4,35,23h0a6.8,6.8,0,0,1,.7-3.1l.2-.4h-.1L24.1,31.2h0l.6-.3A9.1,9.1,0,0,1,28.4,30.2ZM75.5,29a5.4,5.4,0,0,0-3.4-4.3,44.7,44.7,0,0,0-8.3-1.5,64.3,64.3,0,0,0-8.8-.3,5.2,5.2,0,0,0-2.9-4c-3.7-1.5-9.5-1.1-11-.7a5.9,5.9,0,0,0-3.2,2,4.7,4.7,0,0,0-.8,2.8c0,.7,0,2.4,0,3.8s0,2.8,0,2.8A2.4,2.4,0,0,1,34.7,32H28.7a7.3,7.3,0,0,0-3,.6A4.2,4.2,0,0,0,24,33.9a6.1,6.1,0,0,0-.9,3.8s0,1.1.3,3.3,2,13.4,3.8,16.9a4.3,4.3,0,0,0,2.4,2.6c2.9,1.3,9.6,2.6,12.7,3s5.1,1.2,6.3-1.2l.6-1.5A24.3,24.3,0,0,0,50.2,53a.1.1,0,1,1,.3,0c0,1.4-.3,6.3,3.5,7.7A44.5,44.5,0,0,0,61.6,62c2.8.3,4.8,1.4,4.8,8.6,0,4.4-.9,5-5.7,5s-5.4.1-5.4-3,2.5-2.2,4.3-2.2.2-.6.2-2.2,1-2.4.1-2.4c-6.3-.2-10.1,0-10.1,7.9s2.8,8.5,11.8,8.5c7.1,0,9.5-.2,12.5-9.3a83.7,83.7,0,0,0,2.8-16.4C77.4,50.8,76.3,33.4,75.5,29ZM63.2,48.3l-2.5.2c.2-1.8,1-4,3.6-3.9s3.3,2.8,3.3,4.7A11.8,11.8,0,0,0,63.2,48.3Z"/></svg>